<svg width="12" height="18" viewBox="0 0 12 18" fill="none" xmlns="http://www.w3.org/2000/svg">
<path d="M5.8712 8.55284C5.33182 8.55284 4.81454 8.33724 4.43314 7.95345C4.05174 7.56967 3.83747 7.04915 3.83747 6.5064C3.83747 5.96365 4.05174 5.44313 4.43314 5.05935C4.81454 4.67557 5.33182 4.45996 5.8712 4.45996C6.41058 4.45996 6.92787 4.67557 7.30927 5.05935C7.69067 5.44313 7.90493 5.96365 7.90493 6.5064C7.90493 6.77514 7.85233 7.04125 7.75012 7.28954C7.64792 7.53783 7.49812 7.76342 7.30927 7.95345C7.12042 8.14348 6.89622 8.29422 6.64948 8.39707C6.40273 8.49991 6.13828 8.55284 5.8712 8.55284ZM5.8712 0.776367C4.36094 0.776367 2.91254 1.38007 1.84462 2.45466C0.776706 3.52925 0.176758 4.9867 0.176758 6.5064C0.176758 10.8039 5.8712 17.1479 5.8712 17.1479C5.8712 17.1479 11.5656 10.8039 11.5656 6.5064C11.5656 4.9867 10.9657 3.52925 9.89778 2.45466C8.82987 1.38007 7.38146 0.776367 5.8712 0.776367Z" fill="#002982"/>
</svg>
