<svg width="15" height="11" viewBox="0 0 15 11" fill="none" xmlns="http://www.w3.org/2000/svg">
<path d="M0.17441 5.2312L1.01414 5.67201C1.01414 5.67201 1.3955 5.89428 1.59718 5.47776L3.67635 1.05097C3.67635 1.05097 3.87253 0.673674 3.55168 0.494359L2.63494 0.0386006C2.63494 0.0386006 2.35074 -0.123896 2.16556 0.217916C2.16006 0.356138 0.0332488 4.72875 0.0332488 4.72875C0.0332488 4.72875 -0.102441 5.08739 0.17441 5.2312ZM13.8778 5.68135L14.734 5.27977C14.734 5.27977 15.1429 5.11166 14.9467 4.6914L12.8089 0.294495C12.8089 0.294495 12.6384 -0.0958802 12.301 0.0516795L11.3861 0.503697C11.3861 0.503697 11.0854 0.63258 11.2321 0.989329C11.3348 1.07899 13.403 5.48523 13.403 5.48523C13.403 5.48523 13.5955 5.81397 13.8778 5.68135ZM2.20773 5.66642L2.49009 5.05562L3.48384 6.33323C3.48384 6.33323 4.12923 6.18193 4.35658 6.59286C4.35658 6.59286 4.57109 6.84315 4.47758 7.31572C4.47758 7.31572 4.61143 7.41471 4.6206 7.47636C4.6206 7.47636 5.06613 7.36802 5.33381 7.68742C5.33381 7.68742 5.57951 7.88915 5.55017 8.27578C5.55017 8.27578 5.72619 8.35236 5.76285 8.45884C5.76285 8.45884 6.20105 8.34864 6.41191 8.6064C6.41191 8.6064 6.67043 8.85481 6.65209 9.14246L7.05728 9.44318C7.05728 9.44318 7.43499 9.47494 7.49732 9.77753L7.86035 10.0502C7.86035 10.0502 8.44156 10.2837 8.47457 9.69348L7.10862 8.63442C7.10862 8.63442 6.94728 8.20856 7.44782 8.27391L9.48299 9.7327C9.48299 9.7327 9.81484 9.87652 10.0165 9.55526C10.0165 9.55526 10.2127 9.27695 9.93401 8.9781L7.77053 7.38483C7.77053 7.38483 7.57983 6.93841 8.07121 6.97391L10.6381 8.82493C10.6381 8.82493 11.0029 8.97249 11.157 8.69605C11.157 8.69605 11.3641 8.41962 11.157 8.13383L8.32056 6.02877C8.32056 6.02877 8.15004 5.52445 8.68175 5.65334L11.6043 7.7752C11.6043 7.7752 12.0462 7.91716 12.2442 7.54919C12.2442 7.54919 12.4935 7.15508 12.158 6.83007L8.02352 3.15416C8.02352 3.15416 7.2553 2.77872 6.79693 3.56323C6.79693 3.56323 6.71626 4.83896 5.32648 5.07057C5.32648 5.07057 4.37674 4.99586 4.59859 4.36265C4.59859 4.36265 4.87729 3.98722 4.85345 3.19713C4.85345 3.19713 4.88462 2.6293 5.27147 2.14553H3.78271L4.1109 1.45443H6.35874C6.35874 1.45443 7.28281 0.920218 7.97954 0.970652C7.97954 0.970652 8.88711 1.02109 9.13097 1.16118C9.13097 1.16118 10.3337 1.55342 10.8728 1.46189L12.8859 5.71124L12.5669 6.45278C12.5669 6.45278 13.1555 7.06916 12.7209 7.81817C12.5999 8.06845 12.2901 8.31128 11.7822 8.33369C11.7822 8.33369 11.8592 8.83801 11.5035 9.12192C11.5035 9.12192 11.2413 9.48801 10.6069 9.38716C10.6069 9.38716 10.6436 9.8317 10.2237 10.1287C10.2237 10.1287 9.72317 10.5658 8.95128 10.0316C8.95128 10.0316 8.82844 10.5321 8.21239 10.6367C8.21239 10.6367 7.76318 10.7077 7.501 10.45C7.501 10.45 7.02979 11.354 6.35874 10.8441C6.35874 10.8441 5.9352 10.4854 6.23223 9.97926C6.23223 9.97926 5.66018 10.9001 4.97996 10.2071C4.97996 10.2071 4.60411 9.91762 4.95247 9.31431C4.95247 9.31431 4.41343 9.93817 3.81937 9.37221C3.81937 9.37221 3.41419 9.036 3.73687 8.40841C3.73687 8.40841 3.18499 9.07148 2.54327 8.43829C2.54327 8.43829 2.27375 8.18427 2.4296 7.62205L3.05115 6.75723L2.20773 5.66642Z" fill="#002982"/>
</svg>
