<svg width="15" height="14" viewBox="0 0 15 14" fill="none" xmlns="http://www.w3.org/2000/svg">
<path d="M13.3991 3.36094C11.3792 0.226257 7.24272 -0.702538 4.04375 1.24213C0.922093 3.18679 -0.0830222 7.42442 1.93687 10.5494L2.10117 10.801L1.42465 13.3358L3.95677 12.6586L4.20805 12.823C5.30014 13.4132 6.48889 13.7518 7.66796 13.7518C8.93402 13.7518 10.2001 13.4132 11.2922 12.736C14.4138 10.7042 15.3416 6.55368 13.3991 3.34159V3.36094ZM11.6304 9.88186C11.2922 10.385 10.8669 10.7236 10.2774 10.8107C9.93914 10.8107 9.5139 10.9751 7.83226 10.3076C6.4019 9.63031 5.21316 8.52737 4.37234 7.25995C3.86979 6.66978 3.60884 5.90546 3.53153 5.14113C3.53153 4.46389 3.78281 3.87372 4.20805 3.44802C4.37234 3.28354 4.54631 3.19647 4.7106 3.19647H5.13585C5.30014 3.19647 5.47411 3.19647 5.56109 3.53509C5.72538 3.96079 6.15063 4.97666 6.15063 5.06374C6.23761 5.15081 6.19895 5.79903 5.81237 6.16668C5.59974 6.40855 5.56109 6.41823 5.64807 6.59238C5.98633 7.09548 6.41157 7.60825 6.82715 8.03395C7.3297 8.45964 7.84193 8.79827 8.43146 9.04982C8.59576 9.13689 8.76972 9.13689 8.8567 8.96274C8.94369 8.79827 9.35926 8.37257 9.53322 8.19842C9.69752 8.03395 9.7845 8.03395 9.95847 8.11135L11.3115 8.78859C11.4758 8.87567 11.6498 8.95307 11.7367 9.04014C11.8237 9.29169 11.8237 9.63031 11.6498 9.88186H11.6304Z" fill="#002982"/>
</svg>
