<svg width="40" height="54" viewBox="0 0 40 54" fill="none" xmlns="http://www.w3.org/2000/svg">
<path fill-rule="evenodd" clip-rule="evenodd" d="M13.5298 52.5669C15.4823 53.5101 17.6226 54 19.791 54C21.9593 54 24.0996 53.5101 26.0521 52.5669L26.5199 52.3402C27.7378 51.7518 28.7653 50.832 29.4845 49.6864C30.2037 48.5408 30.5854 47.2158 30.586 45.8631V44.1791C30.586 39.3141 33.3783 34.9781 36.1275 30.9623C38.1607 27.9891 39.3439 24.5173 39.5496 20.9213C39.7553 17.3252 38.9757 13.7411 37.2949 10.5554C35.614 7.36972 33.0956 4.70313 30.0111 2.84307C26.9266 0.983005 23.3929 0 19.791 0C16.189 0 12.6553 0.983005 9.57083 2.84307C6.48631 4.70313 3.96791 7.36972 2.28705 10.5554C0.60618 13.7411 -0.173406 17.3252 0.0323085 20.9213C0.238023 24.5173 1.42124 27.9891 3.45443 30.9623C6.20357 34.9781 8.99589 39.3141 8.99589 44.1827V45.8631C8.9958 47.2164 9.37725 48.5422 10.0965 49.6885C10.8157 50.8348 11.8435 51.7551 13.062 52.3438L13.5298 52.5669ZM23.706 47.7091L24.1737 47.4788C24.4779 47.3314 24.7344 47.1014 24.9139 46.815C25.0933 46.5286 25.1885 46.1975 25.1885 45.8595V44.1791C25.1885 43.5674 25.2185 42.9676 25.2784 42.3799C21.6982 43.449 17.8837 43.449 14.3035 42.3799C14.361 42.9676 14.391 43.5674 14.3934 44.1791V45.8595C14.3934 46.1975 14.4886 46.5286 14.668 46.815C14.8475 47.1014 15.104 47.3314 15.4082 47.4788L15.8759 47.7055C17.0967 48.2956 18.4351 48.6021 19.791 48.6021C21.1468 48.6021 22.4852 48.2992 23.706 47.7091ZM7.90919 27.9109C9.32694 29.9836 11.1153 32.596 12.4539 35.6402C14.6454 37.0389 17.1911 37.782 19.791 37.782C22.3908 37.782 24.9365 37.0389 27.128 35.6402C28.4666 32.596 30.255 29.9836 31.6763 27.9109C33.1541 25.7484 34.0139 23.2236 34.1629 20.6087C34.3119 17.9937 33.7445 15.3876 32.5219 13.0712C31.2992 10.7548 29.4677 8.81599 27.2246 7.46358C24.9816 6.11117 22.412 5.39645 19.7928 5.39645C17.1735 5.39645 14.6039 6.11117 12.3609 7.46358C10.1178 8.81599 8.28628 10.7548 7.06365 13.0712C5.84103 15.3876 5.27365 17.9937 5.42264 20.6087C5.57164 23.2236 6.43137 25.7484 7.90919 27.9109Z" fill="white"/>
</svg>
