<svg width="13" height="17" viewBox="0 0 13 17" fill="none" xmlns="http://www.w3.org/2000/svg">
<path d="M4.97168 2.76855C4.74635 2.76855 4.53025 2.85807 4.37092 3.0174C4.21158 3.17673 4.12207 3.39284 4.12207 3.61817C4.12207 3.8435 4.21158 4.0596 4.37092 4.21893C4.53025 4.37827 4.74635 4.46778 4.97168 4.46778C5.27212 4.46778 5.56026 4.58713 5.7727 4.79957C5.98515 5.01202 6.1045 5.30015 6.1045 5.60059C6.1045 5.82593 6.19401 6.04203 6.35334 6.20136C6.51268 6.36069 6.72878 6.45021 6.95411 6.45021C7.17944 6.45021 7.39554 6.36069 7.55488 6.20136C7.71421 6.04203 7.80372 5.82593 7.80372 5.60059C7.80372 4.84949 7.50535 4.12915 6.97424 3.59804C6.44313 3.06693 5.72279 2.76855 4.97168 2.76855Z" fill="white"/>
<path fill-rule="evenodd" clip-rule="evenodd" d="M4.25939 16.5488C4.87405 16.8458 5.54785 17 6.23048 17C6.91311 17 7.58692 16.8458 8.20158 16.5488L8.34885 16.4775C8.73228 16.2922 9.05574 16.0027 9.28215 15.642C9.50856 15.2814 9.62875 14.8642 9.62893 14.4384V13.9082C9.62893 12.3767 10.508 11.0116 11.3735 9.7474C12.0135 8.81138 12.386 7.71842 12.4508 6.58632C12.5156 5.45422 12.2701 4.32592 11.741 3.32301C11.2118 2.3201 10.419 1.48062 9.44793 0.89504C8.47688 0.309464 7.36443 0 6.23048 0C5.09654 0 3.98409 0.309464 3.01304 0.89504C2.04199 1.48062 1.24916 2.3201 0.719996 3.32301C0.190835 4.32592 -0.0545907 5.45422 0.0101712 6.58632C0.074933 7.71842 0.447426 8.81138 1.0875 9.7474C1.95297 11.0116 2.83204 12.3767 2.83204 13.9094V14.4384C2.83201 14.8644 2.9521 15.2818 3.17852 15.6427C3.40494 16.0035 3.72852 16.2933 4.11212 16.4786L4.25939 16.5488ZM7.46299 15.0195L7.61025 14.947C7.70601 14.9006 7.78675 14.8282 7.84325 14.7381C7.89975 14.6479 7.92971 14.5437 7.92971 14.4373V13.9082C7.92971 13.7157 7.93915 13.5268 7.95803 13.3418C6.83092 13.6784 5.63005 13.6784 4.50294 13.3418C4.52107 13.5268 4.53051 13.7157 4.53126 13.9082V14.4373C4.53126 14.5437 4.56122 14.6479 4.61772 14.7381C4.67421 14.8282 4.75496 14.9006 4.85072 14.947L4.99798 15.0184C5.38229 15.2042 5.80363 15.3006 6.23048 15.3006C6.65734 15.3006 7.07867 15.2053 7.46299 15.0195ZM2.48993 8.78677C2.93626 9.43927 3.49927 10.2617 3.92067 11.2201C4.6106 11.6604 5.41202 11.8943 6.23048 11.8943C7.04895 11.8943 7.85037 11.6604 8.54029 11.2201C8.9617 10.2617 9.52471 9.43927 9.97217 8.78677C10.4374 8.10598 10.7081 7.31115 10.755 6.48791C10.8019 5.66467 10.6233 4.84424 10.2384 4.11501C9.85346 3.38578 9.27687 2.77541 8.57072 2.34965C7.86457 1.92389 7.05562 1.69888 6.23105 1.69888C5.40648 1.69888 4.59753 1.92389 3.89138 2.34965C3.18523 2.77541 2.60864 3.38578 2.22374 4.11501C1.83884 4.84424 1.66022 5.66467 1.70713 6.48791C1.75403 7.31115 2.02469 8.10598 2.48993 8.78677Z" fill="white"/>
</svg>
