<svg width="38" height="32" viewBox="0 0 38 32" fill="none" xmlns="http://www.w3.org/2000/svg">
<path fill-rule="evenodd" clip-rule="evenodd" d="M22.1451 0C30.7366 0 37.7014 7.01107 37.7014 15.6597C37.7014 24.3084 30.7366 31.3194 22.1451 31.3194C17.926 31.3194 14.0991 29.6287 11.2968 26.8834L13.7076 24.3893C15.8871 26.5245 18.8636 27.8395 22.1451 27.8395C28.8273 27.8395 34.2444 22.3865 34.2444 15.6597C34.2444 8.93297 28.8273 3.47997 22.1451 3.47997C15.4629 3.47997 10.0457 8.93297 10.0457 15.6597C10.0458 15.9895 10.0586 16.316 10.0843 16.6391L13.5026 13.199L15.9471 15.6597L8.3172 23.3403L0.6875 15.6597L3.13194 13.199L6.62352 16.7132C6.6004 16.3625 6.58883 16.0112 6.58884 15.6597C6.58884 7.01107 13.5535 0 22.1451 0ZM23.8736 8.69987V16.4601L28.2812 19.4354L26.3798 22.3238L20.4166 18.3392V8.69987H23.8736Z" fill="#002982"/>
</svg>
