<svg width="34" height="33" viewBox="0 0 34 33" fill="none" xmlns="http://www.w3.org/2000/svg">
<path fill-rule="evenodd" clip-rule="evenodd" d="M14.9289 0.193886C13.0091 0.466847 11.4928 0.929183 9.80106 1.75741C7.17969 3.0408 5.02823 4.92176 3.42694 7.33002C1.95145 9.54915 1.09854 11.8476 0.743442 14.562C0.585274 15.7709 0.641722 17.9855 0.862468 19.234C1.65689 23.7264 4.13726 27.5672 7.86683 30.08C10.1104 31.5917 12.722 32.5415 15.3623 32.8063C16.4676 32.9171 18.6745 32.8526 19.6353 32.6814C21.331 32.3792 22.7921 31.9013 24.2775 31.1629C27.4901 29.5661 29.9958 27.0756 31.5954 23.8895C32.4786 22.1304 32.9558 20.5972 33.2633 18.53C33.3786 17.7552 33.4445 15.1731 33.354 14.9785C33.3212 14.9078 33.2615 14.5764 33.2213 14.242C33.0019 12.4149 32.2519 10.1665 31.2919 8.45827C29.9615 6.09104 27.9999 4.0273 25.7076 2.58326C23.8722 1.42717 21.9 0.683935 19.5203 0.251742C18.7163 0.105694 15.8069 0.0690224 14.9289 0.193886ZM16.7569 4.99766C16.6197 5.09392 16.6149 5.13379 16.6149 6.17706C16.6149 7.36246 16.6431 7.45802 16.9927 7.45802C17.3439 7.45802 17.3812 7.33347 17.3812 6.16061C17.3812 5.13437 17.3763 5.09379 17.2393 4.99766C17.1612 4.94288 17.0527 4.89802 16.9981 4.89802C16.9435 4.89802 16.8349 4.94288 16.7569 4.99766ZM13.1668 6.45245C13.0458 6.51344 13.0023 6.5921 12.987 6.7768C12.9677 7.00982 12.9973 7.05162 13.6538 7.71933C14.2788 8.35504 14.3618 8.41802 14.574 8.41802C14.9457 8.41802 15.1139 8.1496 14.9477 7.82179C14.8457 7.6207 13.8053 6.56976 13.601 6.46141C13.3923 6.35082 13.3692 6.3503 13.1668 6.45245ZM20.3505 6.55414C20.2451 6.61994 19.8931 6.94717 19.5682 7.28131C18.9331 7.93456 18.8587 8.10685 19.1053 8.35402C19.3818 8.6312 19.6456 8.50032 20.4303 7.69635C21.061 7.05014 21.135 6.88163 20.9215 6.57629C20.8002 6.40272 20.605 6.39517 20.3505 6.55414ZM16.4482 8.69488C15.5106 9.04931 15.0934 10.1447 15.5576 11.0325C15.6737 11.2546 16.0157 11.5739 16.2957 11.7216C16.6255 11.8956 17.3909 11.8848 17.7367 11.7012C18.7299 11.174 18.9277 9.85642 18.1312 9.0737C17.9821 8.9272 17.7344 8.76291 17.5807 8.70864C17.2553 8.59383 16.7324 8.58743 16.4482 8.69488ZM20.1396 10.13C19.9393 10.3036 19.915 10.4868 20.0666 10.68L20.2001 10.85H21.2392C22.1647 10.85 22.2898 10.8372 22.3839 10.733C22.5273 10.5742 22.517 10.3015 22.3619 10.146C22.2452 10.0291 22.1491 10.018 21.2515 10.018C20.4074 10.018 20.2506 10.0338 20.1396 10.13ZM11.5847 10.1817C11.3962 10.3139 11.399 10.5945 11.5905 10.7749C11.7289 10.9052 11.8002 10.914 12.7109 10.914C13.6583 10.914 13.6875 10.91 13.8401 10.7569C14.0314 10.5653 14.036 10.4692 13.8645 10.2507L13.7322 10.082H12.7294C11.9251 10.082 11.6984 10.1017 11.5847 10.1817ZM8.6103 11.0432C8.27429 11.1453 7.99454 11.5247 7.99454 11.8783C7.99454 12.2741 8.15214 12.4146 9.83637 13.5193L11.4746 14.594L12.9593 14.6133C14.0603 14.6276 14.4437 14.6524 14.4431 14.7093C14.4426 14.7515 14.3716 17.6185 14.2853 21.0805C14.1528 26.3917 14.1417 27.4065 14.214 27.5765C14.5641 28.3995 15.8554 28.4057 16.2017 27.586C16.2463 27.4804 16.4339 26.0116 16.6187 24.322C16.8034 22.6324 16.9717 21.2297 16.9927 21.2048C17.0137 21.1799 17.1849 22.5479 17.373 24.2448C17.7403 27.5565 17.7473 27.5896 18.1396 27.8546C18.7341 28.2561 19.6 27.9954 19.8281 27.3461C19.8498 27.2846 19.7969 24.4334 19.7107 21.0101C19.6245 17.5869 19.5535 14.7357 19.5531 14.674C19.5523 14.5706 19.664 14.562 21.0114 14.562H22.4705L24.0605 13.5315C24.9349 12.9647 25.7009 12.456 25.7627 12.4011C25.8245 12.3461 25.9067 12.195 25.9455 12.0652C26.0051 11.8661 25.9959 11.7837 25.8871 11.5371C25.7307 11.1826 25.5169 11.0315 25.12 10.9948C24.828 10.9678 24.7886 10.9876 23.576 11.7726L22.3317 12.578H20.4353C19.2822 12.578 18.4708 12.604 18.365 12.6443C18.2693 12.6807 17.9566 12.9399 17.67 13.2203C16.9976 13.8782 16.9617 13.8792 16.3109 13.2592C16.0392 13.0003 15.754 12.7555 15.6773 12.7152C15.5815 12.6649 14.9274 12.642 13.5882 12.642H11.6386L10.4072 11.8489C9.72999 11.4126 9.08965 11.0404 8.98429 11.0217C8.87893 11.003 8.71061 11.0126 8.6103 11.0432ZM0.678566 16.482C0.678566 17.274 0.687697 17.5981 0.698936 17.202C0.71011 16.8061 0.71011 16.1581 0.698936 15.762C0.687697 15.3661 0.678566 15.69 0.678566 16.482Z" fill="#002982"/>
</svg>
