<svg width="12" height="19" viewBox="0 0 12 19" fill="none" xmlns="http://www.w3.org/2000/svg">
<path d="M1.00783 4.19742L0 3.18742C0.707879 2.44194 1.53886 1.8648 2.49293 1.45599C3.44701 1.04718 4.47571 0.842773 5.57905 0.842773C6.68238 0.842773 7.71132 1.04718 8.66588 1.45599C9.62043 1.8648 10.4512 2.44194 11.1581 3.18742L10.1503 4.19742C9.57436 3.59623 8.89336 3.1273 8.10725 2.79063C7.32115 2.45396 6.47841 2.28563 5.57905 2.28563C4.67968 2.28563 3.83694 2.45396 3.05084 2.79063C2.26473 3.1273 1.58373 3.59623 1.00783 4.19742ZM3.02348 6.21742L2.01566 5.20742C2.47158 4.75051 3.00261 4.3898 3.60874 4.12527C4.21488 3.86075 4.87165 3.72849 5.57905 3.72849C6.28644 3.72849 6.94345 3.86075 7.55007 4.12527C8.15668 4.3898 8.68748 4.75051 9.14244 5.20742L8.13461 6.21742C7.81066 5.89277 7.42961 5.63739 6.99144 5.45126C6.55328 5.26513 6.08248 5.17183 5.57905 5.17134C5.07561 5.17086 4.60457 5.26417 4.16593 5.45126C3.72728 5.63835 3.34647 5.89373 3.02348 6.21742ZM5.57905 18.1571C4.89516 18.1571 4.30438 17.9077 3.80671 17.4089C3.30903 16.9102 3.05996 16.3179 3.05948 15.6321V9.82456C3.05948 9.1392 3.30855 8.54715 3.80671 8.0484C4.30486 7.54965 4.89564 7.30004 5.57905 7.29956C6.26245 7.29908 6.85347 7.54869 7.3521 8.0484C7.85074 8.54811 8.09958 9.14016 8.09861 9.82456V15.6321C8.09861 16.3174 7.84978 16.9097 7.3521 17.4089C6.85443 17.9082 6.26341 18.1575 5.57905 18.1571ZM5.57905 11.3035C5.97498 11.3035 6.31404 11.1623 6.59623 10.88C6.87842 10.5977 7.01928 10.2579 7.0188 9.86063C7.01832 9.46336 6.87746 9.12381 6.59623 8.84197C6.315 8.56013 5.97594 8.41873 5.57905 8.41777C5.18215 8.41681 4.84333 8.55821 4.56258 8.84197C4.28183 9.12574 4.14073 9.46529 4.13929 9.86063C4.13785 10.256 4.27895 10.5958 4.56258 10.88C4.84621 11.1643 5.18503 11.3054 5.57905 11.3035Z" fill="white"/>
</svg>
