<svg width="13" height="11" viewBox="0 0 13 11" fill="none" xmlns="http://www.w3.org/2000/svg">
<path d="M11.575 0.451172H1.55998C0.871451 0.451172 0.314365 1.02122 0.314365 1.71795L0.308105 9.31865C0.308105 10.0154 0.871451 10.5854 1.55998 10.5854H11.575C12.2636 10.5854 12.8269 10.0154 12.8269 9.31865V1.71795C12.8269 1.02122 12.2636 0.451172 11.575 0.451172ZM11.3246 3.14309L6.89925 5.94268C6.69895 6.06935 6.43606 6.06935 6.23575 5.94268L1.81036 3.14309C1.7476 3.10743 1.69263 3.05926 1.6488 3.00149C1.60496 2.94372 1.57317 2.87755 1.55534 2.80699C1.53751 2.73642 1.53401 2.66293 1.54506 2.59096C1.55611 2.51899 1.58148 2.45004 1.61963 2.38827C1.65777 2.32651 1.70791 2.27322 1.767 2.23163C1.82609 2.19004 1.8929 2.16102 1.9634 2.14632C2.0339 2.13161 2.10661 2.13154 2.17713 2.14609C2.24766 2.16065 2.31453 2.18954 2.37371 2.231L6.5675 4.88491L10.7613 2.231C10.8205 2.18954 10.8873 2.16065 10.9579 2.14609C11.0284 2.13154 11.1011 2.13161 11.1716 2.14632C11.2421 2.16102 11.3089 2.19004 11.368 2.23163C11.4271 2.27322 11.4772 2.32651 11.5154 2.38827C11.5535 2.45004 11.5789 2.51899 11.5899 2.59096C11.601 2.66293 11.5975 2.73642 11.5797 2.80699C11.5618 2.87755 11.53 2.94372 11.4862 3.00149C11.4424 3.05926 11.3874 3.10743 11.3246 3.14309Z" fill="white"/>
</svg>
