<svg width="12" height="16" viewBox="0 0 12 16" fill="none" xmlns="http://www.w3.org/2000/svg">
<path d="M6.12003 7.65383C5.60403 7.65383 5.10916 7.44756 4.74429 7.08041C4.37942 6.71326 4.17444 6.2153 4.17444 5.69607C4.17444 5.17684 4.37942 4.67888 4.74429 4.31173C5.10916 3.94458 5.60403 3.73831 6.12003 3.73831C6.63603 3.73831 7.1309 3.94458 7.49577 4.31173C7.86064 4.67888 8.06563 5.17684 8.06563 5.69607C8.06563 5.95317 8.0153 6.20775 7.91753 6.44527C7.81975 6.6828 7.67644 6.89862 7.49577 7.08041C7.31511 7.26221 7.10063 7.40641 6.86458 7.5048C6.62853 7.60319 6.37553 7.65383 6.12003 7.65383ZM6.12003 0.214355C4.67522 0.214355 3.28958 0.791892 2.26795 1.81991C1.24631 2.84793 0.672363 4.24223 0.672363 5.69607C0.672363 9.80736 6.12003 15.8764 6.12003 15.8764C6.12003 15.8764 11.5677 9.80736 11.5677 5.69607C11.5677 4.24223 10.9937 2.84793 9.97211 1.81991C8.95048 0.791892 7.56484 0.214355 6.12003 0.214355Z" fill="white"/>
</svg>
