<svg width="16" height="13" viewBox="0 0 16 13" fill="none" xmlns="http://www.w3.org/2000/svg">
<path d="M14.3418 0.175781H2.38346C1.56133 0.175781 0.896146 0.856445 0.896146 1.68837L0.888672 10.7639C0.888672 11.5958 1.56133 12.2765 2.38346 12.2765H14.3418C15.1639 12.2765 15.8366 11.5958 15.8366 10.7639V1.68837C15.8366 0.856445 15.1639 0.175781 14.3418 0.175781ZM14.0428 3.39003L8.75875 6.73284C8.51958 6.8841 8.20568 6.8841 7.96651 6.73284L2.68242 3.39003C2.60748 3.34746 2.54185 3.28994 2.48951 3.22096C2.43717 3.15198 2.39921 3.07297 2.37791 2.98872C2.35662 2.90446 2.35245 2.81671 2.36564 2.73077C2.37884 2.64484 2.40913 2.5625 2.45468 2.48875C2.50023 2.41501 2.56009 2.35138 2.63065 2.30172C2.7012 2.25206 2.78098 2.2174 2.86516 2.19985C2.94933 2.18229 3.03615 2.1822 3.12036 2.19958C3.20457 2.21696 3.28442 2.25145 3.35508 2.30097L8.36263 5.46983L13.3702 2.30097C13.4408 2.25145 13.5207 2.21696 13.6049 2.19958C13.6891 2.1822 13.7759 2.18229 13.8601 2.19985C13.9443 2.2174 14.0241 2.25206 14.0946 2.30172C14.1652 2.35138 14.225 2.41501 14.2706 2.48875C14.3161 2.5625 14.3464 2.64484 14.3596 2.73077C14.3728 2.81671 14.3686 2.90446 14.3473 2.98872C14.3261 3.07297 14.2881 3.15198 14.2358 3.22096C14.1834 3.28994 14.1178 3.34746 14.0428 3.39003Z" fill="#002982"/>
</svg>
