<svg width="14" height="14" viewBox="0 0 14 14" fill="none" xmlns="http://www.w3.org/2000/svg">
<path d="M12.967 3.32776C10.903 0.124667 6.67631 -0.824398 3.40752 1.16271C0.217744 3.14981 -0.809306 7.47992 1.25467 10.6731L1.42255 10.9302L0.731269 13.5203L3.31865 12.8283L3.57541 12.9964C4.69134 13.5994 5.90602 13.9454 7.11083 13.9454C8.40452 13.9454 9.69821 13.5994 10.8141 12.9074C14.0039 10.8313 14.952 6.59017 12.967 3.30799V3.32776ZM11.1598 9.99099C10.8141 10.5051 10.3796 10.8511 9.77721 10.9401C9.43157 10.9401 8.99705 11.1081 7.27871 10.426C5.81714 9.73395 4.60246 8.60694 3.74329 7.31186C3.22977 6.70881 2.96313 5.9278 2.88412 5.1468C2.88412 4.45478 3.14089 3.85172 3.57541 3.41674C3.74329 3.24867 3.92105 3.1597 4.08893 3.1597H4.52345C4.69134 3.1597 4.8691 3.1597 4.95798 3.50571C5.12586 3.9407 5.56038 4.97874 5.56038 5.06771C5.64926 5.15669 5.60976 5.81906 5.21474 6.19473C4.99748 6.44188 4.95797 6.45177 5.04685 6.62972C5.3925 7.14379 5.82702 7.66776 6.25166 8.10274C6.76519 8.53773 7.28859 8.88375 7.89099 9.14078C8.05888 9.22976 8.23664 9.22976 8.32551 9.05181C8.41439 8.88375 8.83904 8.44876 9.0168 8.27081C9.18468 8.10274 9.27356 8.10274 9.45132 8.18183L10.8339 8.87386C11.0018 8.96283 11.1795 9.04192 11.2684 9.1309C11.3573 9.38794 11.3573 9.73395 11.1795 9.99099H11.1598Z" fill="white"/>
</svg>
