<svg width="14" height="12" viewBox="0 0 14 12" fill="none" xmlns="http://www.w3.org/2000/svg">
<path d="M0 2.48703C1.98011 0.874655 4.45185 -0.00352539 7 1.06368e-05C9.65208 1.06368e-05 12.0875 0.931477 14 2.48703L13.2226 3.45521C11.4626 2.02152 9.26524 1.24084 7 1.24445C4.64191 1.24445 2.47816 2.07201 0.777365 3.45521L0 2.48703ZM1.94403 4.90747C3.37421 3.74285 5.15951 3.10855 7 3.11112C8.84041 3.10837 10.6257 3.74245 12.056 4.90685L11.278 5.87503C10.068 4.88945 8.55729 4.35288 7 4.35556C5.37966 4.35556 3.89116 4.92489 2.72202 5.87503L1.94403 4.90747ZM3.88868 7.32791C4.76877 6.61118 5.86739 6.22076 7 6.22223C8.17843 6.22223 9.26092 6.636 10.1113 7.32729L9.33333 8.29547C8.67319 7.75823 7.84933 7.4656 7 7.46667C6.11618 7.46667 5.30416 7.77716 4.66667 8.29547L3.88868 7.32791ZM5.83333 9.74835C6.16357 9.47996 6.57535 9.33348 7 9.33333C7.44191 9.33333 7.84792 9.48889 8.16667 9.74773L7 11.2L5.83333 9.74835Z" fill="white"/>
</svg>
