<svg width="34" height="33" viewBox="0 0 34 33" fill="none" xmlns="http://www.w3.org/2000/svg">
<path d="M16.875 0C18.3534 0 19.7856 0.1947 21.1485 0.55935L17.6406 4.0656C17.3745 4.33279 17.1397 4.62951 16.941 4.95H16.875C14.5906 4.95 12.3576 5.6274 10.4582 6.89653C8.55878 8.16566 7.07838 9.96952 6.20419 12.08C5.33 14.1905 5.10127 16.5128 5.54693 18.7533C5.99259 20.9938 7.09262 23.0518 8.70792 24.6671C10.3232 26.2824 12.3812 27.3824 14.6217 27.8281C16.8622 28.2737 19.1845 28.045 21.295 27.1708C23.4055 26.2966 25.2093 24.8162 26.4785 22.9168C27.7476 21.0174 28.425 18.7844 28.425 16.5V16.434C28.744 16.236 29.0382 16.0022 29.3077 15.7327L32.8156 12.2265C33.1803 13.5894 33.375 15.0216 33.375 16.5C33.375 25.6129 25.9879 33 16.875 33C7.76205 33 0.375 25.6129 0.375 16.5C0.375 7.38705 7.76205 0 16.875 0ZM16.1919 8.27805C16.1919 9.6822 16.1226 11.1062 16.1985 12.5087L15.3075 13.3997C15.001 13.7061 14.7579 14.07 14.592 14.4705C14.4261 14.8709 14.3408 15.3001 14.3408 15.7336C14.3408 16.167 14.4261 16.5962 14.592 16.9967C14.7579 17.3971 15.001 17.761 15.3075 18.0675C15.614 18.374 15.9779 18.6171 16.3783 18.783C16.7788 18.9489 17.208 19.0342 17.6414 19.0342C18.0749 19.0342 18.5041 18.9489 18.9045 18.783C19.305 18.6171 19.6689 18.374 19.9753 18.0675L20.8663 17.1765C22.2688 17.2524 23.6911 17.1831 25.0969 17.1831C24.9666 18.7512 24.3906 20.2492 23.4368 21.5007C22.483 22.7521 21.1912 23.7047 19.7138 24.246C18.2364 24.7874 16.6349 24.895 15.0984 24.5561C13.5619 24.2172 12.1543 23.4459 11.0417 22.3333C9.92906 21.2207 9.15783 19.8131 8.81893 18.2766C8.48004 16.7401 8.58761 15.1386 9.12897 13.6612C9.67033 12.1838 10.6229 10.892 11.8743 9.93824C13.1258 8.98443 14.6238 8.40839 16.1919 8.27805ZM27.6066 0.20955C27.9078 0.334421 28.1652 0.545716 28.3464 0.816766C28.5276 1.08781 28.6244 1.40647 28.6247 1.7325V4.752H31.6425C31.9688 4.75207 32.2877 4.84888 32.559 5.03019C32.8303 5.2115 33.0417 5.46917 33.1666 5.77062C33.2914 6.07207 33.3241 6.40378 33.2605 6.7238C33.1968 7.04382 33.0397 7.33779 32.809 7.56855L26.973 13.398C26.6636 13.7075 26.244 13.8814 25.8064 13.8814H21.825L18.8088 16.8993C18.4992 17.2089 18.0793 17.3828 17.6414 17.3828C17.2036 17.3828 16.7837 17.2089 16.4741 16.8993C16.1644 16.5897 15.9905 16.1698 15.9905 15.7319C15.9905 15.2941 16.1644 14.8742 16.4741 14.5645L19.4919 11.55V7.5669C19.4917 7.34996 19.5343 7.13511 19.6173 6.93466C19.7003 6.7342 19.8219 6.55208 19.9753 6.3987L25.8081 0.56595C26.0388 0.335061 26.3329 0.177801 26.653 0.114067C26.9732 0.0503322 27.305 0.082987 27.6066 0.2079" fill="#002982"/>
</svg>
