<svg width="38" height="58" viewBox="0 0 38 58" fill="none" xmlns="http://www.w3.org/2000/svg">
<path d="M3.37606 11.2375L0 7.85417C2.37128 5.35694 5.15492 3.42361 8.35092 2.05417C11.5469 0.684722 14.9929 0 18.6889 0C22.3849 0 25.8317 0.684722 29.0293 2.05417C32.2269 3.42361 35.0097 5.35694 37.3778 7.85417L34.0017 11.2375C32.0725 9.22361 29.7913 7.65278 27.158 6.525C24.5246 5.39722 21.7016 4.83333 18.6889 4.83333C15.6762 4.83333 12.8531 5.39722 10.2198 6.525C7.58648 7.65278 5.30523 9.22361 3.37606 11.2375ZM10.1282 18.0042L6.75211 14.6208C8.27938 13.0903 10.0582 11.8819 12.0887 10.9958C14.1191 10.1097 16.3192 9.66667 18.6889 9.66667C21.0586 9.66667 23.2594 10.1097 25.2915 10.9958C27.3235 11.8819 29.1016 13.0903 30.6257 14.6208L27.2496 18.0042C26.1644 16.9167 24.888 16.0612 23.4202 15.4377C21.9524 14.8142 20.3753 14.5016 18.6889 14.5C17.0025 14.4984 15.4246 14.8109 13.9552 15.4377C12.4858 16.0644 11.2101 16.9199 10.1282 18.0042ZM18.6889 58C16.398 58 14.419 57.1646 12.7518 55.4939C11.0847 53.8232 10.2503 51.8391 10.2487 49.5417V30.0875C10.2487 27.7917 11.0831 25.8084 12.7518 24.1377C14.4206 22.4669 16.3996 21.6308 18.6889 21.6292C20.9782 21.6276 22.958 22.4637 24.6283 24.1377C26.2987 25.8116 27.1322 27.7949 27.129 30.0875V49.5417C27.129 51.8375 26.2955 53.8216 24.6283 55.4939C22.9612 57.1662 20.9814 58.0016 18.6889 58ZM18.6889 35.0417C20.0152 35.0417 21.151 34.5688 22.0963 33.6231C23.0416 32.6774 23.5134 31.5391 23.5118 30.2083C23.5102 28.8776 23.0384 27.7401 22.0963 26.796C21.1542 25.8519 20.0184 25.3782 18.6889 25.375C17.3594 25.3718 16.2244 25.8454 15.2839 26.796C14.3434 27.7466 13.8708 28.884 13.8659 30.2083C13.8611 31.5327 14.3338 32.6709 15.2839 33.6231C16.234 34.5752 17.369 35.0481 18.6889 35.0417Z" fill="white"/>
</svg>
